<svg xmlns="http://www.w3.org/2000/svg" width="50" height="50" viewBox="0 0 50 50"><path fill="#FF7058" d="M25 25zm0 0zm0 0zm0 0zm0 0zm0 0zm0 0zm0 0zm0 0zm0 0z"/><path fill="#40596B" d="M45.83 25c0 2.812-.625 5.518-1.563 7.92l-10.42-4.268c.518-1.142.733-2.402.733-3.652h11.25z"/><path fill="#FF7058" d="M25 25zm0 0zm0 0zm0 0zm0 0z"/><path fill="#CDD6E0" d="M21.357 33.857L17.09 44.17a20.24 20.24 0 0 1-6.768-4.482l7.92-7.92a7.132 7.132 0 0 0 3.115 2.089z"/><path fill="#ACB3BA" d="M18.232 31.768l-7.92 7.92c-1.875-1.875-3.545-4.17-4.58-6.768l10.42-4.268c.45 1.231 1.114 2.159 2.08 3.116z"/><path fill="#84DBFF" d="M16.143 28.643L5.732 32.92C4.688 30.527 4.17 27.813 4.17 25h11.25c0 1.357.205 2.5.723 3.643z"/><path fill="#54C0EB" d="M16.143 21.357C15.625 22.5 15.41 23.75 15.41 25H4.17c0-2.813.518-5.518 1.563-7.92l10.41 4.277z"/><path fill="#334A5E" d="M44.268 32.92c-1.045 2.5-2.686 4.795-4.561 6.777l-7.92-7.92c.938-.83 1.543-1.973 2.061-3.125l10.42 4.268z"/><path fill="#284154" d="M39.707 39.697a20.332 20.332 0 0 1-6.797 4.473l-4.268-10.313c1.143-.518 2.207-1.25 3.145-2.08l7.92 7.92z"/><path fill="#E23C2B" d="M45.83 25H34.58c0-1.357-.313-2.5-.732-3.643l10.42-4.268c1.045 2.393 1.562 5.099 1.562 7.911z"/><path fill="#FF7058" d="M39.688 10.313l-7.92 7.92a10.366 10.366 0 0 0-3.018-2.08l4.268-10.42c2.607.937 4.795 2.597 6.67 4.58z"/><path fill="#F1543F" d="M44.268 17.08l-10.42 4.268c-.518-1.143-1.143-2.188-2.08-3.125l7.92-7.92a19.072 19.072 0 0 1 4.58 6.777z"/><path fill="#EFA53A" d="M33.018 5.732l-4.268 10.42c-1.143-.518-2.451-.732-3.701-.732V4.17c2.715 0 5.469.625 7.969 1.562z"/><path fill="#FFD15C" d="M21.357 16.143c-1.143.518-2.295 1.25-3.125 2.08l-8.018-7.92c1.875-1.875 4.268-3.438 6.875-4.482l4.268 10.322z"/><path fill="#F8B64C" d="M25.049 4.17v11.25a10.13 10.13 0 0 0-3.701.732L17.08 5.83a20.332 20.332 0 0 1 7.969-1.66z"/><path fill="#20ADCE" d="M18.232 18.232c-.938.938-1.563 1.982-2.08 3.125L5.732 17.08c1.045-2.5 2.607-4.795 4.482-6.768l8.018 7.92z"/></svg>