<svg xmlns="http://www.w3.org/2000/svg" width="50" height="32.707" viewBox="0 8.578 50 32.707"><path d="M49.648 21.039c-.095-.127-2.385-3.152-6.546-6.177C37.573 10.84 31.314 8.715 25 8.715c-6.313 0-12.573 2.125-18.102 6.147-4.161 3.026-6.451 6.05-6.546 6.177a1.76 1.76 0 0 0 0 2.113c.084.112 1.855 2.45 5.095 5.065l-2.356 4.711a1.76 1.76 0 1 0 3.15 1.574l2.092-4.184a32.9 32.9 0 0 0 5.557 2.931l-2.084 4.168a1.76 1.76 0 1 0 3.15 1.574l2.295-4.59c1.97.55 3.974.892 5.99 1.018v4.105a1.761 1.761 0 0 0 3.522 0V35.42a28.985 28.985 0 0 0 5.99-1.018l2.295 4.59a1.761 1.761 0 1 0 3.15-1.574l-2.084-4.168a32.833 32.833 0 0 0 5.557-2.932l2.092 4.185a1.76 1.76 0 1 0 3.149-1.574l-2.356-4.712c3.24-2.614 5.011-4.953 5.094-5.064a1.767 1.767 0 0 0-.002-2.114zm-8.711 5.51c-4.969 3.587-10.33 5.405-15.937 5.405-5.607 0-10.968-1.819-15.937-5.405a32.513 32.513 0 0 1-4.997-4.454 32.407 32.407 0 0 1 4.997-4.454c4.969-3.587 10.331-5.405 15.937-5.405s10.968 1.819 15.937 5.405a32.513 32.513 0 0 1 4.997 4.454 32.407 32.407 0 0 1-4.997 4.454z"/></svg>