<svg xmlns="http://www.w3.org/2000/svg" width="50" height="32.641" viewBox="0 0 50 32.641"><path fill="#010101" d="M.361 20.432c.096.126 2.409 3.133 6.592 6.128 5.559 3.98 11.834 6.058 18.148 6.01 6.313-.048 12.556-2.22 18.055-6.283 4.138-3.057 6.405-6.099 6.499-6.227.465-.63.458-1.49-.016-2.113-.085-.111-1.873-2.436-5.133-5.026l2.32-4.729a1.76 1.76 0 0 0-3.161-1.551l-2.061 4.2a32.963 32.963 0 0 0-5.579-2.889l2.052-4.184a1.76 1.76 0 0 0-3.161-1.551l-2.26 4.607a29 29 0 0 0-5.997-.973l-.031-4.104a1.76 1.76 0 1 0-3.52.027l.031 4.104a29.028 29.028 0 0 0-5.982 1.063L14.828 2.37a1.759 1.759 0 0 0-2.368-.77 1.76 1.76 0 0 0-.77 2.368l2.115 4.152a32.916 32.916 0 0 0-5.535 2.974L6.147 6.925a1.76 1.76 0 1 0-3.138 1.598L5.4 13.217C2.18 15.856.427 18.208.344 18.32a1.761 1.761 0 0 0 .017 2.112zm8.669-5.576c4.941-3.624 10.289-5.483 15.896-5.525 5.606-.042 10.982 1.736 15.978 5.285a32.463 32.463 0 0 1 5.03 4.416 32.441 32.441 0 0 1-4.963 4.492c-4.942 3.624-10.29 5.483-15.896 5.525-5.606.042-10.982-1.736-15.977-5.285a32.463 32.463 0 0 1-5.03-4.416 32.375 32.375 0 0 1 4.962-4.492z"/><path fill="#010101" d="M25 10.866c-1.517 0-2.907.54-3.99 1.439a2.064 2.064 0 1 1-2.095 3.38A6.252 6.252 0 1 0 25 10.866z"/></svg>